<svg id="Logo" xmlns="http://www.w3.org/2000/svg" viewBox="0 0 151.06 195.35"><defs><style>.cls-1{fill:#97999b;}.cls-2{fill:#eaaa00;}</style></defs><path class="cls-1" d="M43.36,149.17V146.5h2.72V131.55H43.36v-2.67H52.2v2.67H49.41V146.5H52.2v2.67Z"/><path class="cls-1" d="M54.81,149.17V134.05H58v2.5h.15a6,6,0,0,1,.56-1.1,3.79,3.79,0,0,1,.82-.92,3.54,3.54,0,0,1,1.13-.61,4.65,4.65,0,0,1,1.53-.22,4.9,4.9,0,0,1,2.73.76,4.32,4.32,0,0,1,1.75,2.28h.08a4.52,4.52,0,0,1,1.57-2.18,4.75,4.75,0,0,1,3-.9,4.29,4.29,0,0,1,3.52,1.53,6.7,6.7,0,0,1,1.25,4.35v9.59H72.9v-9.22a4.28,4.28,0,0,0-.67-2.63,2.46,2.46,0,0,0-2.12-.88,3.85,3.85,0,0,0-1.17.16,2.87,2.87,0,0,0-1,.47,2.45,2.45,0,0,0-.68.82A2.33,2.33,0,0,0,67,139v10.15H63.86v-9.22c0-2.34-.93-3.51-2.77-3.51a4,4,0,0,0-1.14.16,2.87,2.87,0,0,0-1,.47,2.51,2.51,0,0,0-.7.82A2.34,2.34,0,0,0,58,139v10.15Z"/><path class="cls-1" d="M79.29,134.05h3.17v2.5h.15a4.17,4.17,0,0,1,1.61-2.11,4.7,4.7,0,0,1,2.63-.74,5.23,5.23,0,0,1,4.45,2.08,11.63,11.63,0,0,1,0,11.66,5.23,5.23,0,0,1-4.45,2.08,4.64,4.64,0,0,1-2.63-.76,4.22,4.22,0,0,1-1.61-2.09h-.15V155H79.29Zm6.61,12.74a3.49,3.49,0,0,0,2.64-1.06,4,4,0,0,0,1-2.81V140.3a3.89,3.89,0,0,0-1-2.8,3.42,3.42,0,0,0-2.64-1.06,4,4,0,0,0-2.45.71,2.19,2.19,0,0,0-1,1.87v5.18a2.2,2.2,0,0,0,1,1.87A4.12,4.12,0,0,0,85.9,146.79Z"/><path class="cls-1" d="M107.29,149.17a2.55,2.55,0,0,1-1.91-.71,3.2,3.2,0,0,1-.82-1.82h-.14a3.76,3.76,0,0,1-1.6,2.15,5.26,5.26,0,0,1-2.82.73,5,5,0,0,1-3.62-1.22A4.36,4.36,0,0,1,95.11,145a3.87,3.87,0,0,1,1.64-3.4,8.48,8.48,0,0,1,4.82-1.13h2.73V139.2a2.89,2.89,0,0,0-.76-2.15,3.16,3.16,0,0,0-2.35-.76,3.66,3.66,0,0,0-2.18.58,5.31,5.31,0,0,0-1.43,1.48l-1.89-1.71a6.15,6.15,0,0,1,2.13-2.11,6.74,6.74,0,0,1,3.57-.83,6.66,6.66,0,0,1,4.51,1.37,4.9,4.9,0,0,1,1.57,3.92v7.59h1.61v2.59Zm-6.39-2.06a4.3,4.3,0,0,0,2.44-.66,2,2,0,0,0,1-1.76v-2.18h-2.68c-2.19,0-3.28.68-3.28,2V145a1.81,1.81,0,0,0,.68,1.53A3.16,3.16,0,0,0,100.9,147.11Z"/><path class="cls-1" d="M117.15,149.52a7.6,7.6,0,0,1-2.91-.55,5.84,5.84,0,0,1-2.15-1.59,7.3,7.3,0,0,1-1.34-2.5,11.91,11.91,0,0,1,0-6.54,7.12,7.12,0,0,1,1.34-2.5,5.73,5.73,0,0,1,2.15-1.59,7.24,7.24,0,0,1,2.91-.55,6.37,6.37,0,0,1,3.72,1,6,6,0,0,1,2.13,2.7l-2.62,1.23a3.09,3.09,0,0,0-3.23-2.3,3.18,3.18,0,0,0-2.63,1.09,4.27,4.27,0,0,0-.89,2.82v2.7a4.37,4.37,0,0,0,.89,2.83,3.2,3.2,0,0,0,2.63,1.08,3.4,3.4,0,0,0,2.22-.68,4.8,4.8,0,0,0,1.33-1.82l2.41,1.28a6,6,0,0,1-2.27,2.87A6.52,6.52,0,0,1,117.15,149.52Z"/><path class="cls-1" d="M130.44,149.17a3.37,3.37,0,0,1-2.5-.86,3.27,3.27,0,0,1-.85-2.42v-9.25h-2.35v-2.59H126a1.4,1.4,0,0,0,1.06-.31,1.69,1.69,0,0,0,.3-1.13V130h2.85v4.13h3.17v2.59h-3.17v9.94h2.94v2.59Z"/><path class="cls-1" d="M44.23,174.24V154H53a5.58,5.58,0,0,1,4.36,1.66,7.14,7.14,0,0,1,0,8.89A5.62,5.62,0,0,1,53,166.16H47.52v8.08Zm3.29-11h5.23a2.85,2.85,0,0,0,2-.64,2.48,2.48,0,0,0,.7-1.86v-1.39a2.41,2.41,0,0,0-.7-1.85,2.7,2.7,0,0,0-2-.65H47.52Z"/><path class="cls-1" d="M72.58,174.24a2.5,2.5,0,0,1-1.92-.71,3.1,3.1,0,0,1-.81-1.81H69.7a3.76,3.76,0,0,1-1.6,2.15,5.25,5.25,0,0,1-2.82.72,5,5,0,0,1-3.62-1.22,4.37,4.37,0,0,1-1.26-3.28,3.81,3.81,0,0,1,1.68-3.35,8.36,8.36,0,0,1,4.81-1.14h2.73v-1.28a2.92,2.92,0,0,0-.75-2.15,3.22,3.22,0,0,0-2.36-.76,3.67,3.67,0,0,0-2.18.59,5,5,0,0,0-1.42,1.48L61,161.74a6,6,0,0,1,2.12-2.1,6.72,6.72,0,0,1,3.58-.9,6.61,6.61,0,0,1,4.5,1.36A4.89,4.89,0,0,1,72.75,164v7.59h1.6v2.58Zm-6.4-2.06a4.29,4.29,0,0,0,2.44-.65,2,2,0,0,0,1-1.76v-2.18H66.91c-2.19,0-3.29.68-3.29,2v.53a1.77,1.77,0,0,0,.69,1.52A3,3,0,0,0,66.18,172.18Z"/><path class="cls-1" d="M76.79,174.24V159.13H80V162h.12a4,4,0,0,1,1.34-2,4.21,4.21,0,0,1,2.82-.87h.84v3.05H83.83a5.57,5.57,0,0,0-2.89.61,2,2,0,0,0-1,1.8v9.65Z"/><path class="cls-1" d="M92.59,174.24a3.4,3.4,0,0,1-2.51-.85,3.34,3.34,0,0,1-.84-2.43v-9.22H86.89v-2.58h1.28a1.44,1.44,0,0,0,1.09-.35,1.79,1.79,0,0,0,.3-1.14V155h2.85v4.13h3.17v2.58H92.41v9.95h2.94v2.58Z"/><path class="cls-1" d="M98,174.24V159.13h3.17v2.5h.15a4.88,4.88,0,0,1,1.5-2,4.2,4.2,0,0,1,2.74-.81,4.46,4.46,0,0,1,3.62,1.52,6.52,6.52,0,0,1,1.3,4.35v9.59h-3.17V165.1q0-3.57-2.85-3.55a4.47,4.47,0,0,0-1.21.16,3.39,3.39,0,0,0-1.06.48,2.22,2.22,0,0,0-.74.81,2.38,2.38,0,0,0-.28,1.17v10.07Z"/><path class="cls-1" d="M119.83,174.59a7.24,7.24,0,0,1-2.91-.55,6.12,6.12,0,0,1-2.18-1.58,7.21,7.21,0,0,1-1.38-2.5,11.41,11.41,0,0,1,0-6.55,7.21,7.21,0,0,1,1.38-2.5,6.21,6.21,0,0,1,2.18-1.58,7.24,7.24,0,0,1,2.91-.55,6.84,6.84,0,0,1,2.92.58,5.75,5.75,0,0,1,2.11,1.61,7,7,0,0,1,1.26,2.4,9.73,9.73,0,0,1,.43,2.94v1.19H116.17V168a4,4,0,0,0,1,2.85,3.85,3.85,0,0,0,3,1.11,4.31,4.31,0,0,0,2.35-.61,5.24,5.24,0,0,0,1.63-1.65l1.86,1.84a6,6,0,0,1-2.44,2.23A8,8,0,0,1,119.83,174.59Zm0-13.34a3.71,3.71,0,0,0-1.5.29,3.25,3.25,0,0,0-1.16.81,3.6,3.6,0,0,0-.74,1.25,4.55,4.55,0,0,0-.26,1.6v.21h7v-.3a4.17,4.17,0,0,0-.9-2.8,3,3,0,0,0-2.44-1.06Z"/><path class="cls-1" d="M129.45,174.24V159.13h3.17V162h.15a4.08,4.08,0,0,1,1.33-2,4.21,4.21,0,0,1,2.82-.87h.85v3.05h-1.25a5.61,5.61,0,0,0-2.9.61,2,2,0,0,0-1,1.8v9.65Z"/><path class="cls-1" d="M145.15,174.59a7.85,7.85,0,0,1-3.6-.75,8,8,0,0,1-2.53-2.1l2-1.86a6.69,6.69,0,0,0,1.88,1.59,4.9,4.9,0,0,0,2.4.56,3.4,3.4,0,0,0,2.08-.53,1.82,1.82,0,0,0,.68-1.5,1.73,1.73,0,0,0-.48-1.24,2.78,2.78,0,0,0-1.67-.65l-1.4-.17a7.21,7.21,0,0,1-3.65-1.36,3.82,3.82,0,0,1-1.32-3.15,4.43,4.43,0,0,1,.41-2A4,4,0,0,1,141.1,160a5,5,0,0,1,1.77-.91,7.27,7.27,0,0,1,7.92,2.09l-2,1.86a5,5,0,0,0-1.52-1.21,4.55,4.55,0,0,0-2.17-.5,3,3,0,0,0-1.93.52,1.69,1.69,0,0,0-.63,1.37,1.55,1.55,0,0,0,.56,1.3,4,4,0,0,0,1.77.64l1.4.18a6.61,6.61,0,0,1,3.64,1.47,3.79,3.79,0,0,1,1.15,2.92,4.61,4.61,0,0,1-.42,2,4.4,4.4,0,0,1-1.21,1.53,5.64,5.64,0,0,1-1.89,1A8,8,0,0,1,145.15,174.59Z"/><path class="cls-2" d="M0,98.2V54.84H12.08V98c0,5.85,2.2,8.31,8,8.31h19V118.2H19.91c-13,0-19.91-7.85-19.91-20"/><polygon class="cls-2" points="105.25 54.84 105.25 66.71 121.6 66.71 121.6 118.2 133.66 118.2 133.66 66.71 150.64 66.71 150.64 54.84 105.25 54.84"/><rect class="cls-2" x="43.35" y="54.84" width="12.05" height="63.36"/><path class="cls-2" d="M74.08,74.74c0-5.85,2.2-8,8-8h19.19V54.84H81.94c-13,0-19.91,8-19.91,20.18V118.2H74V92.27H96.49V81H74.08Z"/><path class="cls-2" d="M56.28,14.74a7,7,0,1,0-7,7,7,7,0,0,0,7-7"/></svg>